<svg width="32" height="32" viewBox="0 0 32 32" fill="none" xmlns="http://www.w3.org/2000/svg">
<path d="M4 12V25.8667C4 26.6134 4 26.9865 4.14532 27.2717C4.27315 27.5226 4.47698 27.727 4.72786 27.8548C5.01279 28 5.38598 28 6.13125 28H19.9999M9.33327 18.4003V8.26693C9.33327 6.77345 9.33327 6.02616 9.62392 5.45573C9.87957 4.95396 10.2872 4.54631 10.789 4.29065C11.3594 4 12.1067 4 13.6001 4H23.7334C25.2268 4 25.9732 4 26.5436 4.29065C27.0453 4.54631 27.4537 4.95396 27.7094 5.45573C28 6.02616 28 6.77292 28 8.26637L28 18.3997C28 19.8932 28 20.6399 27.7094 21.2104C27.4537 21.7121 27.0453 22.1206 26.5436 22.3763C25.9737 22.6667 25.2284 22.6667 23.7379 22.6667H13.5958C12.1052 22.6667 11.3588 22.6667 10.789 22.3763C10.2872 22.1206 9.87958 21.7123 9.62392 21.2105C9.33327 20.6401 9.33327 19.8937 9.33327 18.4003Z" stroke="#DCDAFF" stroke-width="3" stroke-linecap="round" stroke-linejoin="round"/>
</svg>
