<svg width="70" height="16" viewBox="0 0 70 16" fill="none" xmlns="http://www.w3.org/2000/svg">
<path d="M0.559188 0.423999H4.44719L7.47119 11.8L10.4952 0.423999H13.9752L17.2392 11.8L20.0232 0.423999H23.8152L18.8232 16H15.1272L12.1512 4.696L9.07919 16H5.38319L0.559188 0.423999ZM29.8236 0.423999H34.3836L39.9996 16H36.2076L34.8156 11.896H29.1276L27.7596 16H24.0636L29.8236 0.423999ZM33.9996 9.4L32.0316 3.544H31.9356L29.9676 9.4H33.9996ZM40.0469 0.423999H43.8389L48.0149 12.88H48.1109L52.2869 0.423999H55.9829L50.2229 16H45.6389L40.0469 0.423999ZM57.6644 0.423999H69.5444V3.088H61.4084V6.664H68.7524V9.328H61.4084V13.336H69.7844V16H57.6644V0.423999Z" fill="url(#paint0_linear_76_789)"/>
<defs>
<linearGradient id="paint0_linear_76_789" x1="-24.5" y1="9.65513" x2="83" y2="9.65513" gradientUnits="userSpaceOnUse">
<stop stop-color="#209DE0"/>
<stop offset="0.6" stop-color="#4346F3"/>
<stop offset="1" stop-color="#FD33FC"/>
</linearGradient>
</defs>
</svg>
