<svg width="18" height="18" viewBox="0 0 18 18" fill="none" xmlns="http://www.w3.org/2000/svg">
<path d="M12.6846 9.98535C12.9165 9.58289 13.4313 9.44335 13.835 9.67383C14.2393 9.90509 14.3795 10.4207 14.1484 10.8252L14.1475 10.8262V10.8281C14.1469 10.8292 14.1453 10.8307 14.1445 10.832C14.143 10.8347 14.1409 10.838 14.1387 10.8418C14.1338 10.8501 14.1272 10.8617 14.1191 10.875C14.1028 10.9019 14.0799 10.9392 14.0508 10.9844C13.9922 11.0751 13.907 11.2014 13.7969 11.3496C13.5774 11.645 13.2511 12.0386 12.8223 12.4336C12.1142 13.0856 11.0827 13.7776 9.75879 13.9932V14.9854H12.1309C12.5968 14.9854 12.9746 15.3631 12.9746 15.8291C12.9743 16.2948 12.5967 16.6728 12.1309 16.6729H5.69824C5.23254 16.6727 4.8548 16.2948 4.85449 15.8291C4.85453 15.3632 5.23238 14.9855 5.69824 14.9854H8.07129V13.9932C7.55667 13.9091 7.08653 13.7524 6.66211 13.5547L7.90625 12.2275C8.22049 12.3204 8.55723 12.375 8.91602 12.375C10.0738 12.375 11.0038 11.8138 11.6787 11.1924C12.0128 10.8847 12.2701 10.5746 12.4424 10.3428C12.5278 10.2278 12.5912 10.1333 12.6318 10.0703C12.652 10.0391 12.6672 10.0152 12.6758 10.001C12.6796 9.99464 12.6822 9.98978 12.6836 9.9873L12.6846 9.98535ZM11.5312 9.04395C11.5311 10.3628 10.3611 11.5311 9 11.5312C8.86243 11.5312 8.72737 11.516 8.59473 11.4932L11.5312 8.36133V9.04395ZM3.99707 9.67383C4.26153 9.52277 4.57321 9.53144 4.82227 9.66797L3.7041 10.8604C3.69991 10.8532 3.69636 10.8469 3.69336 10.8418C3.69111 10.838 3.68906 10.8347 3.6875 10.832C3.68671 10.8307 3.68518 10.8292 3.68457 10.8281V10.8262L3.68359 10.8252L3.64453 10.748C3.47109 10.3573 3.61818 9.89071 3.99707 9.67383ZM9 1.40625C9.96493 1.40633 10.8308 1.99502 11.2549 2.80664L6.46875 7.91309V3.89355C6.46886 2.57463 7.63879 1.40625 9 1.40625Z" fill="#DFDEFB"/>
<g clip-path="url(#clip0_731_223)">
<path d="M12.9375 3.9375L4.5 12.9375" stroke="#DFDEFB" stroke-width="2" stroke-linecap="round"/>
</g>
<defs>
<clipPath id="clip0_731_223">
<rect width="11.25" height="12.375" fill="white" transform="translate(3.375 2.25)"/>
</clipPath>
</defs>
</svg>
