<svg width="32" height="32" viewBox="0 0 32 32" fill="none" xmlns="http://www.w3.org/2000/svg">
<path d="M10.013 26.4023C11.775 27.4185 13.8194 27.9999 15.9995 27.9999C22.6269 27.9999 28 22.6274 28 16C28 9.37258 22.6274 4 16 4C9.37258 4 4 9.37258 4 16C4 18.1802 4.58139 20.2245 5.59759 21.9865L5.60153 21.9933C5.6993 22.1629 5.74861 22.2483 5.77094 22.3291C5.79201 22.4053 5.79789 22.4739 5.7925 22.5527C5.7867 22.6375 5.75814 22.7254 5.69958 22.901L4.67448 25.9763L4.67319 25.9804C4.4569 26.6292 4.34876 26.9537 4.42585 27.1698C4.49306 27.3583 4.64225 27.5071 4.83073 27.5743C5.04642 27.6512 5.36939 27.5435 6.0154 27.3282L6.02344 27.3252L9.09873 26.3001C9.27383 26.2418 9.36285 26.2122 9.44746 26.2064C9.52633 26.201 9.59437 26.2081 9.67057 26.2292C9.75158 26.2516 9.83711 26.3009 10.0075 26.3992L10.013 26.4023Z" stroke="#DCDAFF" stroke-width="3" stroke-linecap="round" stroke-linejoin="round"/>
</svg>
