<svg width="32" height="32" viewBox="0 0 32 32" fill="none" xmlns="http://www.w3.org/2000/svg">
<path fill-rule="evenodd" clip-rule="evenodd" d="M15.8484 2.5C18.5376 2.50001 20.8482 4.57778 20.8484 6.92246V16.0775C20.8486 18.4225 18.5374 20.5 15.8484 20.5C13.1592 20.5 10.8486 18.4222 10.8484 16.0775V6.92246C10.8482 4.57747 13.1593 2.5 15.8484 2.5ZM15.8484 5.07502C14.5208 5.07502 13.5756 6.13266 13.5757 6.92246V16.0775C13.5757 16.8676 14.521 17.925 15.8484 17.925C17.1759 17.925 18.1212 16.8673 18.1211 16.0775V6.92246C18.1211 6.13235 17.1757 5.07504 15.8484 5.07502Z" fill="#DCDAFF"/>
<path d="M22.5508 17.7514C22.9631 17.0359 23.8772 16.788 24.5948 17.1977C25.314 17.6087 25.5642 18.5254 25.1534 19.2446C25.1534 19.2446 25.1483 19.2426 25.1524 19.2456L25.1514 19.2465L25.1505 19.2495C25.1494 19.2513 25.1479 19.2539 25.1465 19.2563C25.1437 19.2613 25.14 19.2677 25.1358 19.2749C25.1271 19.2897 25.115 19.3098 25.1006 19.3335C25.0716 19.3814 25.0304 19.4474 24.9786 19.5278C24.8745 19.6892 24.7241 19.9128 24.5284 20.1762C24.1382 20.7014 23.5578 21.4014 22.795 22.104C21.5362 23.2632 19.7026 24.4942 17.3487 24.8774V26.6401H21.5665C22.3949 26.6401 23.0664 27.3117 23.0665 28.1401C23.0662 28.9683 22.3947 29.6401 21.5665 29.6401H10.1299C9.30186 29.6399 8.63021 28.9682 8.62995 28.1401C8.63001 27.3119 9.30174 26.6403 10.1299 26.6401H14.3487V24.8774C11.9969 24.4933 10.1643 23.2626 8.90631 22.104C8.14343 21.4013 7.56307 20.7014 7.17291 20.1762C6.9771 19.9126 6.82679 19.6892 6.72272 19.5278C6.67075 19.4472 6.6297 19.3814 6.60065 19.3335C6.58621 19.3096 6.57423 19.2897 6.56549 19.2749C6.56121 19.2676 6.55764 19.2613 6.55475 19.2563C6.5533 19.2538 6.55194 19.2514 6.55084 19.2495L6.54987 19.2465L6.54889 19.2456L6.54791 19.2446C6.13718 18.5255 6.38763 17.6088 7.10651 17.1977C7.82416 16.7878 8.73816 17.0359 9.15045 17.7514L9.15241 17.7544C9.15476 17.7584 9.1595 17.7673 9.16706 17.7798C9.18233 17.805 9.20827 17.8471 9.2442 17.9028C9.31642 18.0148 9.4291 18.1825 9.58112 18.3872C9.88734 18.7994 10.3444 19.3497 10.9385 19.8969C12.1383 21.002 13.792 22.0003 15.8506 22.0005C17.9093 22.0005 19.5629 21.0019 20.7628 19.8969C21.3568 19.3498 21.8139 18.7994 22.1202 18.3872C22.2721 18.1827 22.3849 18.0148 22.4571 17.9028C22.4929 17.8473 22.5189 17.805 22.5342 17.7798C22.5416 17.7676 22.5465 17.7585 22.5489 17.7544L22.5508 17.7514Z" fill="#DCDAFF"/>
</svg>
