<svg width="32" height="32" viewBox="0 0 32 32" fill="none" xmlns="http://www.w3.org/2000/svg">
<path d="M9.19681 24.2157C11.0433 25.7465 13.4143 26.6666 16.0002 26.6666C21.8912 26.6666 26.6669 21.891 26.6669 16C26.6669 15.2413 26.5876 14.501 26.437 13.7871M9.19681 24.2157C6.83675 22.2592 5.33352 19.3051 5.33352 16C5.33352 10.1089 10.1091 5.33331 16.0002 5.33331C21.1325 5.33331 25.4182 8.95802 26.437 13.7871M9.19681 24.2157C11.8042 23.6196 14.9061 22.3771 18.0347 20.5708C21.6752 18.4689 24.6364 16.0166 26.437 13.7871M9.19681 24.2157C5.95791 24.9561 3.48213 24.699 2.6662 23.2858C1.82578 21.8302 2.92842 19.4625 5.33332 16.9453M26.437 13.7871C28.1061 11.7205 28.7781 9.84538 28.0696 8.6183C27.3512 7.37399 25.346 7.02583 22.6662 7.46569" stroke="#DCDAFF" stroke-width="3" stroke-linecap="round" stroke-linejoin="round"/>
</svg>
