<svg width="36" height="36" viewBox="0 0 36 36" fill="none" xmlns="http://www.w3.org/2000/svg">
<path d="M27.6384 22.9361C28.6389 23.3648 29.7996 23.1413 30.5693 22.3716L33.1582 19.7827C34.143 18.7979 34.1432 17.2013 33.1584 16.2165C24.7872 7.84528 11.2144 7.84529 2.84319 16.2165C1.85835 17.2013 1.8586 18.798 2.84345 19.7828L5.43232 22.3726C6.20199 23.1422 7.36249 23.3658 8.36297 22.937L11.8364 21.4479C12.7351 21.0627 13.3504 20.2163 13.4389 19.2425L13.5452 18.0681C13.6699 16.6969 14.8198 15.6461 16.1966 15.6461L19.8047 15.6477C21.1815 15.6477 22.3319 16.6964 22.4565 18.0675L22.5629 19.2419C22.6514 20.2156 23.2659 21.0633 24.1646 21.4484L27.6384 22.9361Z" fill="#DFDEFB"/>
</svg>
