<svg width="36" height="36" viewBox="0 0 36 36" fill="none" xmlns="http://www.w3.org/2000/svg">
<g clip-path="url(#clip0_743_277)">
<path d="M16.5818 1.52525C17.2215 1.56104 17.8477 1.7318 18.4179 2.03038C19.1121 2.39399 19.6607 2.9875 20.3051 3.65423L20.7379 4.10282C20.8203 4.18813 20.8283 4.1966 20.8401 4.20806C21.0111 4.37392 21.2193 4.49672 21.4488 4.56629C21.4663 4.57158 21.4889 4.57803 21.5919 4.60565C21.6945 4.63312 21.7157 4.63841 21.7337 4.64262C21.9672 4.69723 22.2092 4.69544 22.4397 4.63768C22.4582 4.63304 22.4808 4.62616 22.5808 4.59765L23.1761 4.42858L23.1813 4.42795C24.0663 4.17568 24.8323 3.93815 25.6112 3.96995C26.2493 3.99611 26.876 4.15732 27.4483 4.44501C28.1455 4.79558 28.7011 5.37622 29.3544 6.02844L29.9599 6.63249C30.616 7.2875 31.1974 7.84321 31.5493 8.54152C31.8376 9.11385 32.0004 9.74121 32.0267 10.3821C32.0585 11.1618 31.8204 11.9284 31.5679 12.811L31.3925 13.4242C31.3675 13.5117 31.3596 13.5417 31.3537 13.5654C31.2955 13.7966 31.2942 14.04 31.3488 14.2738L31.3486 14.2748C31.3528 14.2926 31.3582 14.3142 31.3855 14.4161C31.4185 14.5391 31.4189 14.5427 31.4234 14.5577C31.4923 14.7851 31.6152 14.9941 31.782 15.1664C31.7972 15.1821 31.8172 15.2012 31.8862 15.2681L32.3372 15.7054L32.3363 15.7051C32.3372 15.706 32.3386 15.7071 32.3395 15.708C33.0002 16.348 33.5876 16.8925 33.9494 17.5821C34.2462 18.148 34.4193 18.7708 34.4569 19.4085L34.4626 19.7002C34.4474 20.3809 34.251 21.0677 34.0439 21.8476L33.8229 22.6801C33.5877 23.5658 33.3984 24.347 32.9706 25.0005C32.619 25.5376 32.1567 25.9934 31.6135 26.3374C30.9511 26.7567 30.1624 26.9348 29.2621 27.1591L28.6607 27.3094C28.6568 27.3103 28.6521 27.3101 28.6482 27.3111C28.5562 27.334 28.5373 27.34 28.5209 27.3447C28.2904 27.41 28.0778 27.5293 27.9026 27.6937C27.8835 27.7116 27.8609 27.7341 27.7995 27.7954C27.725 27.8699 27.7096 27.8852 27.6971 27.8984C27.5335 28.0727 27.4132 28.2852 27.3475 28.5165C27.341 28.5396 27.333 28.5687 27.3111 28.6563L27.1518 29.2961C26.9315 30.1774 26.7548 30.9559 26.3401 31.6122C25.9985 32.1529 25.5457 32.6142 25.0118 32.9659C24.3616 33.3943 23.5832 33.5865 22.6977 33.826L21.8693 34.0499C20.9771 34.2911 20.2033 34.5195 19.4218 34.4758C18.7791 34.4399 18.1528 34.2658 17.5852 33.9686C16.8912 33.605 16.3439 33.0123 15.699 32.345L15.2422 31.8728L15.2415 31.8716C15.184 31.812 15.1725 31.8006 15.1637 31.7921C14.9926 31.6261 14.783 31.502 14.5534 31.4324L14.2694 31.3563C14.0375 31.3021 13.7962 31.3043 13.5641 31.3625C13.5447 31.3673 13.5197 31.3744 13.422 31.4022L12.8277 31.5716C11.9401 31.8246 11.1714 32.0619 10.3917 32.0299C9.75202 32.0036 9.12571 31.841 8.55482 31.5539C7.85778 31.2033 7.30198 30.6239 6.64846 29.9714L6.0439 29.3676C5.38875 28.7136 4.80565 28.1571 4.45359 27.4584C4.16512 26.8857 4.00238 26.2583 3.9762 25.6178C3.94433 24.8367 4.18205 24.0683 4.43752 23.1755L4.60518 22.5875C4.63522 22.4825 4.64206 22.4587 4.647 22.439C4.70465 22.2081 4.70677 21.9688 4.65494 21.7415C4.65112 21.7247 4.64838 21.7133 4.61625 21.5916C4.58722 21.4816 4.58066 21.4589 4.57497 21.44C4.5062 21.2116 4.38379 21.0024 4.21852 20.8309C4.20617 20.8181 4.19627 20.808 4.10643 20.721L3.66402 20.2931C3.00143 19.6513 2.41444 19.1075 2.05254 18.4175C1.75459 17.8495 1.58454 17.2259 1.5472 16.5907C1.5016 15.814 1.72035 15.0471 1.95825 14.1511L2.17544 13.3368C2.41424 12.4374 2.60423 11.655 3.03319 10.9997C3.3849 10.4624 3.84812 10.0061 4.39148 9.66207C5.0537 9.2429 5.84017 9.0643 6.741 8.83981L7.34331 8.68981C7.45563 8.66182 7.46843 8.65919 7.48414 8.65475C7.71451 8.58953 7.92614 8.46992 8.10141 8.30554C8.11309 8.29459 8.11776 8.28928 8.20357 8.20351C8.27808 8.12903 8.29255 8.11357 8.30503 8.10027C8.47171 7.92276 8.5918 7.71073 8.65628 7.48365C8.65711 7.48024 8.65864 7.47553 8.66008 7.4695C8.66608 7.44435 8.67679 7.39956 8.69086 7.34328L8.84528 6.72548C9.06967 5.82791 9.24747 5.04684 9.66372 4.38793C10.0049 3.84797 10.4576 3.38637 10.992 3.03421C11.642 2.60593 12.4191 2.41385 13.304 2.1746C13.3069 2.1738 13.3099 2.17271 13.3128 2.17191L14.1302 1.95114L14.1345 1.95027C15.0275 1.70879 15.8001 1.48156 16.5818 1.52525ZM19.5539 12.2043C16.3531 11.3467 13.063 13.2462 12.2054 16.4469C11.3478 19.6476 13.2474 22.9376 16.448 23.7954C19.6488 24.653 22.9389 22.7535 23.7965 19.5527C24.6542 16.3519 22.7547 13.0619 19.5539 12.2043Z" fill="#DFDEFB"/>
</g>
<defs>
<clipPath id="clip0_743_277">
<rect width="36" height="36" fill="white"/>
</clipPath>
</defs>
</svg>
