<svg width="36" height="36" viewBox="0 0 36 36" fill="none" xmlns="http://www.w3.org/2000/svg">
<path d="M14.6761 7.69425C14.2719 6.68362 13.2931 6.02092 12.2046 6.02092L8.54334 6.02092C7.15056 6.02092 6.02148 7.14972 6.02148 8.54251C6.02148 20.3812 15.6189 29.9786 27.4576 29.9786C28.8504 29.9786 29.9792 28.8494 29.9792 27.4566L29.9798 23.7948C29.9798 22.7063 29.3172 21.7276 28.3066 21.3234L24.7975 19.9203C23.8897 19.5571 22.8561 19.7206 22.105 20.3465L21.1994 21.1018C20.1417 21.9832 18.5855 21.9131 17.6119 20.9396L15.0618 18.3871C14.0883 17.4136 14.0163 15.8587 14.8977 14.801L15.6529 13.8954C16.2788 13.1443 16.4437 12.1104 16.0806 11.2026L14.6761 7.69425Z" fill="#DFDEFB"/>
</svg>
