<svg width="32" height="32" viewBox="0 0 32 32" fill="none" xmlns="http://www.w3.org/2000/svg">
<path d="M9.4751 13.8708C9.17093 14.6554 9.00244 15.5082 9.00244 16.4001C9.0026 20.2658 12.1368 23.3998 16.0024 23.4001C16.8942 23.4001 17.7464 23.2305 18.5308 22.9265L20.4878 24.8835C14.2672 27.0048 6.70102 24.5672 3.57568 17.5671C3.21002 16.748 3.20044 15.8129 3.54834 14.9861C4.25152 13.3157 5.20751 11.8984 6.33838 10.7341L9.4751 13.8708ZM23.8101 23.2058C23.3749 23.5085 22.9251 23.7832 22.4624 24.0291L20.3315 21.8982C20.7347 21.5804 21.1027 21.2205 21.4272 20.823L23.8101 23.2058ZM11.0601 7.62769C17.4052 5.19123 25.3654 7.64345 28.4565 14.9861C28.8046 15.813 28.795 16.7479 28.4292 17.5671C27.6534 19.3046 26.6021 20.7588 25.3677 21.9343L22.4819 19.0486C22.8164 18.2314 23.0024 17.3377 23.0024 16.4001C23.0024 12.5342 19.8684 9.40015 16.0024 9.40015C15.0644 9.40023 14.1696 9.58488 13.3521 9.91968L11.0601 7.62769ZM11.5796 10.9753C11.1819 11.3 10.8213 11.6678 10.5034 12.071L7.84131 9.40894C8.26147 9.0922 8.69687 8.80258 9.146 8.54175L11.5796 10.9753Z" fill="#B6B5BA"/>
<path d="M16.9194 21.3149C16.6231 21.3697 16.3176 21.3999 16.0054 21.3999C13.244 21.3998 11.0054 19.1613 11.0054 16.3999C11.0054 16.0873 11.0345 15.7815 11.0894 15.4849L16.9194 21.3149ZM20.0044 19.3999C19.6953 19.8112 19.3239 20.1722 18.9048 20.4712L11.9331 13.4995C12.232 13.0805 12.5932 12.7089 13.0044 12.3999L20.0044 19.3999ZM16.0054 11.3999C18.7668 11.3999 21.0054 13.6385 21.0054 16.3999C21.0054 16.7632 20.9657 17.1172 20.8921 17.4585L14.9468 11.5132C15.2881 11.4396 15.6421 11.3999 16.0054 11.3999Z" fill="#B6B5BA"/>
<rect x="6.42041" y="5.3999" width="28" height="2" rx="1" transform="rotate(45 6.42041 5.3999)" fill="#B6B5BA"/>
</svg>
