<svg width="72" height="72" viewBox="0 0 72 72" fill="none" xmlns="http://www.w3.org/2000/svg">
<path d="M19.3164 32.7363C20.6966 32.7367 21.816 33.8562 21.8164 35.2363C21.8164 37.1211 22.1779 38.9867 22.8789 40.7246C23.58 42.4625 24.6065 44.0378 25.8955 45.3613C27.1843 46.6845 28.7107 47.7309 30.3857 48.4434C32.0607 49.1557 33.8542 49.5215 35.6631 49.5215C37.472 49.5214 39.2655 49.1557 40.9404 48.4434C42.6155 47.7308 44.1429 46.6846 45.4316 45.3613C46.7205 44.0378 47.7463 42.4623 48.4473 40.7246C49.1483 38.9867 49.5098 37.1211 49.5098 35.2363C49.5102 33.8561 50.6295 32.7366 52.0098 32.7363H53.8262C55.2064 32.7366 56.3258 33.8562 56.3262 35.2363C56.3262 38.0044 55.7956 40.7478 54.7627 43.3086C53.7296 45.8694 52.213 48.2013 50.2979 50.168C48.3824 52.1347 46.1041 53.6994 43.5928 54.7676C41.7824 55.5375 39.8761 56.037 37.9336 56.2568V59.7246H46.6904C47.9441 59.7248 48.9607 60.7415 48.9609 61.9951C48.9609 63.2489 47.9442 64.2655 46.6904 64.2656H24.96C23.7061 64.2656 22.6895 63.249 22.6895 61.9951C22.6897 60.7414 23.7062 59.7246 24.96 59.7246H33.3926V56.2568C31.4502 56.037 29.5447 55.5375 27.7344 54.7676C25.2228 53.6994 22.9449 52.1349 21.0293 50.168C19.1139 48.2012 17.5976 45.8697 16.5645 43.3086C15.5314 40.7476 15 38.0046 15 35.2363C15.0002 34.5736 15.2638 33.9374 15.7324 33.4688C16.2012 33.0003 16.8373 32.7363 17.5 32.7363H19.3164ZM35.6631 7C41.7532 7.00022 46.6902 11.9372 46.6904 18.0273V35.542C46.6904 41.6323 41.7533 46.5701 35.6631 46.5703C29.5726 46.5703 24.6348 41.6324 24.6348 35.542V18.0273C24.635 11.9371 29.5728 7 35.6631 7Z" fill="#D5D3FF"/>
</svg>
