<svg width="375" height="521" viewBox="0 0 375 521" fill="none" xmlns="http://www.w3.org/2000/svg">
<path d="M132.135 0C103.225 0 80.51 157.931 47.47 157.931C33.0847 157.931 26.6756 146.363 12.365 142.138C-6.19271 136.658 -31 138.19 -31 138.19L214.735 563.815H447H478H497L382 138.19C382 138.19 355.712 156.815 336.57 132.267C318.818 109.503 313.855 45.4051 289.075 45.4051C273.493 45.4051 260.908 76.8062 251.905 120.422C241.817 169.291 233.284 229 214.735 229C197.586 229 189.695 160.533 177.565 104.629C164.864 46.0941 161.045 0 132.135 0Z" fill="#11111B"/>
</svg>
